Coordinates
version=1
nRows=60
nColumns=12
inDegrees=yes

Units are S.I. units (second, meters, Newtons, ...)
Angles are in degrees

endheader
time	SC_y	SC_z	SC_x	AC_y	AC_z	AC_x	GH_y	GH_z	GH_yy	EL_x	PS_y
       0.0              -29.79          3.504          38.03          68.03         -19.65         -5.261         -63.11          14.88         -168.3          65.83          68.17
   0.03932              -29.79          3.509          38.04          68.03         -19.64          -5.26         -63.08          14.87         -168.3          65.83          68.18
   0.07865              -29.79          3.514          38.04          68.03         -19.64         -5.259         -63.06          14.87         -168.2          65.82          68.19
     0.118              -29.79           3.52          38.04          68.02         -19.64         -5.258         -63.02          14.86         -168.2          65.82           68.2
    0.1573              -29.79          3.525          38.05          68.02         -19.63         -5.256         -62.99          14.86         -168.1          65.82          68.21
    0.1966               -29.8          3.532          38.05          68.02         -19.63         -5.255         -62.96          14.85         -168.0          65.81          68.22
    0.2359               -29.8          3.538          38.06          68.01         -19.63         -5.254         -62.92          14.84         -168.0          65.81          68.24
    0.2753               -29.8          3.546          38.06          68.01         -19.62         -5.252         -62.88          14.84         -167.9           65.8          68.25
    0.3146               -29.8          3.553          38.07           68.0         -19.62          -5.25         -62.84          14.83         -167.8           65.8          68.26
    0.3539               -29.8          3.562          38.07           68.0         -19.61         -5.249         -62.79          14.82         -167.8          65.79          68.28
    0.3932              -29.81           3.57          38.08          67.99         -19.61         -5.247         -62.74          14.81         -167.7          65.78           68.3
    0.4326              -29.81           3.58          38.08          67.99          -19.6         -5.245         -62.69           14.8         -167.6          65.78          68.31
    0.4719              -29.81           3.59          38.09          67.98          -19.6         -5.243         -62.63          14.79         -167.5          65.77          68.33
    0.5112              -29.82          3.601           38.1          67.98         -19.59          -5.24         -62.57          14.78         -167.4          65.76          68.35
    0.5505              -29.82          3.613          38.11          67.97         -19.58         -5.238          -62.5          14.77         -167.3          65.75          68.37
    0.5899              -29.83          3.627          38.12          67.96         -19.57         -5.235         -62.43          14.76         -167.2          65.74           68.4
    0.6292              -29.83          3.641          38.12          67.95         -19.56         -5.232         -62.35          14.74         -167.0          65.73          68.42
    0.6685              -29.83          3.656          38.13          67.94         -19.56         -5.229         -62.26          14.73         -166.9          65.72          68.45
    0.7078              -29.84          3.673          38.15          67.93         -19.55         -5.225         -62.17          14.71         -166.7          65.71          68.48
    0.7472              -29.85          3.691          38.16          67.92         -19.53         -5.221         -62.07          14.69         -166.5          65.69          68.52
    0.7865              -29.85          3.712          38.17          67.91         -19.52         -5.217         -61.96          14.67         -166.4          65.68          68.56
    0.8258              -29.86          3.734          38.19           67.9         -19.51         -5.212         -61.83          14.65         -166.2          65.66           68.6
    0.8651              -29.87          3.759           38.2          67.88         -19.49         -5.207         -61.69          14.63         -165.9          65.65          68.64
    0.9045              -29.88          3.786          38.22          67.87         -19.48         -5.201         -61.54           14.6         -165.7          65.63          68.69
    0.9438              -29.88          3.816          38.24          67.85         -19.46         -5.195         -61.37          14.57         -165.4           65.6          68.75
    0.9831               -29.9           3.85          38.26          67.83         -19.44         -5.188         -61.18          14.54         -165.1          65.58          68.81
     1.022              -29.91          3.888          38.29          67.81         -19.42          -5.18         -60.97           14.5         -164.7          65.55          68.88
     1.062              -29.92          3.931          38.32          67.78         -19.39         -5.171         -60.74          14.46         -164.3          65.52          68.96
     1.101              -29.94          3.979          38.35          67.75         -19.36         -5.161         -60.47          14.41         -163.9          65.48          69.05
      1.14              -29.95          4.034          38.39          67.72         -19.33         -5.149         -60.16          14.36         -163.4          65.44          69.15
      1.18              -29.97          4.096          38.43          67.69         -19.29         -5.136         -59.82           14.3         -162.8           65.4          69.26
     1.219               -30.0          4.168          38.48          67.64         -19.25         -5.121         -59.42          14.23         -162.1          65.35          69.39
     1.258              -30.02          4.251          38.53          67.59          -19.2         -5.103         -58.96          14.15         -161.3          65.29          69.55
     1.298              -30.05          4.347           38.6          67.54         -19.14         -5.083         -58.42          14.05         -160.4          65.21          69.72
     1.337              -30.09           4.46          38.67          67.47         -19.07         -5.059         -57.79          13.94         -159.4          65.13          69.93
     1.376              -30.13          4.593          38.76          67.39         -18.99         -5.031         -57.06          13.81         -158.2          65.04          70.18
     1.416              -30.18          4.751          38.87           67.3         -18.89         -4.998         -56.18          13.66         -156.7          64.92          70.47
     1.455              -30.24           4.94          38.99          67.19         -18.78         -4.958         -55.13          13.47         -154.9          64.78          70.81
     1.494              -30.31          5.168          39.14          67.05         -18.64          -4.91         -53.85          13.25         -152.8          64.61          71.23
     1.534               -30.4          5.448          39.33          66.89         -18.47         -4.851          -52.3          12.98         -150.2          64.41          71.75
     1.573              -30.51          5.793          39.56          66.69         -18.27         -4.778         -50.38          12.64         -147.0          64.16          72.38
     1.612              -30.64          6.223          39.85          66.43         -18.01         -4.687         -47.99          12.22         -143.0          63.84          73.17
     1.652              -30.81          6.765          40.21          66.12         -17.68         -4.573         -44.97          11.69         -137.9          63.45          74.17
     1.691              -31.03          7.454          40.67          65.71         -17.26         -4.428         -41.14          11.02         -131.5          62.94          75.44
      1.73              -31.31          8.336          41.26          65.19         -16.73         -4.242         -36.24          10.16         -123.3           62.3          77.06
      1.77              -31.67          9.467          42.01          64.53         -16.05         -4.003         -29.94          9.051         -112.8          61.47          79.14
     1.809              -32.12          10.91          42.98          63.68         -15.17         -3.698          -21.9          7.639         -99.31          60.41          81.79
     1.848              -32.69          12.73          44.19          62.61         -14.08         -3.315          -11.8          5.864         -82.38          59.09          85.14
     1.888              -33.39          14.94          45.67          61.31         -12.74         -2.848         0.5233          3.701         -61.76          57.47          89.21
     1.927               -34.2          17.51          47.39           59.8         -11.19         -2.306           14.8          1.193         -37.85          55.59          93.93
     1.966              -35.08          20.29          49.24          58.16         -9.513          -1.72          30.26         -1.522         -11.97          53.56          99.04
     2.006              -35.95          23.07           51.1          56.53         -7.835         -1.134          45.72         -4.237          13.91          51.53          104.1
     2.045              -36.76          25.64          52.81          55.02         -6.285        -0.5921           60.0         -6.744          37.82          49.65          108.9
     2.084              -37.46          27.85          54.29          53.72         -4.948         -0.125          72.32         -8.908          58.44          48.03          112.9
     2.124              -38.03          29.67           55.5          52.65         -3.851         0.2584          82.43         -10.68          75.37           46.7          116.3
     2.163              -38.49          31.12          56.47           51.8         -2.979         0.5633          90.47         -12.09          88.83          45.64          118.9
     2.202              -38.85          32.25          57.23          51.13         -2.296         0.8019          96.76          -13.2          99.36          44.82          121.0
     2.242              -39.12          33.13          57.81          50.61         -1.763         0.9879          101.7         -14.06          107.6          44.17          122.6
     2.281              -39.34          33.82          58.27          50.21         -1.348          1.133          105.5         -14.73          114.0          43.67          123.9
      2.32              -39.51          34.36          58.64          49.89          -1.02          1.248          108.5         -15.26          119.0          43.27          124.9
